<?xml version="1.0" ?><svg height="24px" version="1.1" viewBox="0 0 24 24" width="24px" xmlns="http://www.w3.org/2000/svg" xmlns:sketch="http://www.bohemiancoding.com/sketch/ns" xmlns:xlink="http://www.w3.org/1999/xlink"><title/><desc/><defs/><g fill="none" fill-rule="evenodd" id="miu" stroke="none" stroke-width="1"><g id="Artboard-1" transform="translate(-755.000000, -299.000000)"><g id="slice" transform="translate(215.000000, 119.000000)"/><path d="M773.875,318.01931 L774.5625,317.963901 C776.513625,317.64613 778,315.998527 778,314.013793 C778,312.26939 776.851875,310.785346 775.248625,310.235923 C775.190875,306.781832 772.288937,304 768.71875,304 C766.143375,304 763.916563,305.447327 762.853,307.550223 C762.34975,307.010146 761.621688,306.670345 760.8125,306.670345 C759.293813,306.670345 758.0625,307.865992 758.0625,309.34069 C758.0625,309.725887 758.146375,310.091724 758.296938,310.422179 C756.935687,311.076414 756,312.438957 756,314.013793 C756,315.998527 757.486375,317.64613 759.4375,317.963901 L760.125,318.01931 L766.931034,318.01931 L767.068965,318 L773.875,318.01931 Z M770,311.5 L768.004517,311.5 L768.004517,316 L766.013184,316 L766.013184,311.5 L764,311.5 L767,308 L770,311.5 Z" fill="#fff" id="cloud-cloud_download-arrow-up-glyph"/></g></g></svg>